{
  "accessors": [
    {
      "bufferView": 0,
      "componentType": 5126,
      "count": 1298,
      "type": "VEC3",
      "max": [
        0.032819509506225586,
        0.049954354763031006,
        0.020077057182788849
      ],
      "min": [
        -0.032819509506225586,
        0.0,
        -0.020077057182788849
      ]
    },
    {
      "bufferView": 1,
      "componentType": 5126,
      "count": 1298,
      "type": "VEC3",
      "max": [
        0.99999940395355225,
        1.0,
        0.99999940395355225
      ],
      "min": [
        -0.99999940395355225,
        -1.0,
        -0.99999940395355225
      ]
    },
    {
      "bufferView": 2,
      "componentType": 5126,
      "count": 1298,
      "type": "VEC4",
      "max": [
        1.0,
        1.0,
        0.998611330986023,
        1.0
      ],
      "min": [
        -0.9999082088470459,
        0.0,
        -0.9999082088470459,
        -1.0
      ]
    },
    {
      "bufferView": 3,
      "componentType": 5126,
      "count": 1298,
      "type": "VEC2",
      "max": [
        0.58754575252532959,
        0.9850735068321228
      ],
      "min": [
        0.013177871704101563,
        0.088592588901519775
      ]
    },
    {
      "bufferView": 4,
      "componentType": 5125,
      "count": 2418,
      "type": "SCALAR",
      "max": [
        1297.0
      ],
      "min": [
        0.0
      ]
    }
  ],
  "asset": {
    "generator": "UnityGLTF (2019.1.4f1)",
    "version": "2.0"
  },
  "buffers": [
    {
      "uri": "SF_Bld_Stall_02.bin",
      "byteLength": 71976
    }
  ],
  "bufferViews": [
    {
      "buffer": 0,
      "byteLength": 15576
    },
    {
      "buffer": 0,
      "byteOffset": 15576,
      "byteLength": 15576
    },
    {
      "buffer": 0,
      "byteOffset": 31152,
      "byteLength": 20768
    },
    {
      "buffer": 0,
      "byteOffset": 51920,
      "byteLength": 10384
    },
    {
      "buffer": 0,
      "byteOffset": 62304,
      "byteLength": 9672
    }
  ],
  "images": [
    {
      "uri": "11560_Fantasy_Texture.jpg",
      "name": "Fantasy_Texture"
    }
  ],
  "materials": [
    {
      "pbrMetallicRoughness": {
        "baseColorTexture": {
          "index": 0
        },
        "metallicFactor": 0.0,
        "roughnessFactor": 0.5
      },
      "name": "Fantasy_Texture"
    }
  ],
  "meshes": [
    {
      "primitives": [
        {
          "attributes": {
            "POSITION": 0,
            "NORMAL": 1,
            "TANGENT": 2,
            "TEXCOORD_0": 3
          },
          "indices": 4,
          "material": 0
        }
      ],
      "name": "SF_Bld_Stall_02"
    }
  ],
  "nodes": [
    {
      "mesh": 0,
      "rotation": [
        0.0,
        0.0,
        0.0,
        -1.0
      ],
      "translation": [
        -71.24874,
        -35.021862,
        22.2473183
      ],
      "name": "SF_Bld_Stall_02"
    }
  ],
  "samplers": [
    {
      "minFilter": 9729
    }
  ],
  "scene": 0,
  "scenes": [
    {
      "nodes": [
        0
      ],
      "name": "SF_Bld_Stall_02"
    }
  ],
  "textures": [
    {
      "sampler": 0,
      "source": 0,
      "name": "Fantasy_Texture"
    }
  ]
}