{
  "accessors": [
    {
      "bufferView": 0,
      "componentType": 5126,
      "count": 3246,
      "type": "VEC3",
      "max": [
        0.049768216907978058,
        0.12168156355619431,
        0.058279417455196381
      ],
      "min": [
        -0.049768522381782532,
        0.0,
        -0.058279722929000854
      ]
    },
    {
      "bufferView": 1,
      "componentType": 5126,
      "count": 3246,
      "type": "VEC3",
      "max": [
        1.0,
        1.0,
        1.0
      ],
      "min": [
        -1.0,
        -1.0,
        -1.0
      ]
    },
    {
      "bufferView": 2,
      "componentType": 5126,
      "count": 3246,
      "type": "VEC4",
      "max": [
        1.0,
        1.0,
        1.0,
        1.0
      ],
      "min": [
        -1.0,
        -1.0,
        -1.0,
        -1.0
      ]
    },
    {
      "bufferView": 3,
      "componentType": 5126,
      "count": 3246,
      "type": "VEC2",
      "max": [
        0.76976394653320313,
        0.51655387878417969
      ],
      "min": [
        0.01491546630859375,
        0.0079585611820220947
      ]
    },
    {
      "bufferView": 4,
      "componentType": 5126,
      "count": 3246,
      "type": "VEC4",
      "max": [
        1.0,
        1.0,
        1.0,
        1.0
      ],
      "min": [
        0.0,
        0.0,
        0.0,
        0.0
      ]
    },
    {
      "bufferView": 5,
      "componentType": 5125,
      "count": 5736,
      "type": "SCALAR",
      "max": [
        3245.0
      ],
      "min": [
        0.0
      ]
    }
  ],
  "asset": {
    "generator": "UnityGLTF (2019.1.4f1)",
    "version": "2.0"
  },
  "buffers": [
    {
      "uri": "SF_Bld_House_Blue_03.bin",
      "byteLength": 230688
    }
  ],
  "bufferViews": [
    {
      "buffer": 0,
      "byteLength": 38952
    },
    {
      "buffer": 0,
      "byteOffset": 38952,
      "byteLength": 38952
    },
    {
      "buffer": 0,
      "byteOffset": 77904,
      "byteLength": 51936
    },
    {
      "buffer": 0,
      "byteOffset": 129840,
      "byteLength": 25968
    },
    {
      "buffer": 0,
      "byteOffset": 155808,
      "byteLength": 51936
    },
    {
      "buffer": 0,
      "byteOffset": 207744,
      "byteLength": 22944
    }
  ],
  "images": [
    {
      "uri": "11662_Fantasy_Texture.jpg",
      "name": "Fantasy_Texture"
    }
  ],
  "materials": [
    {
      "pbrMetallicRoughness": {
        "baseColorTexture": {
          "index": 0
        },
        "metallicFactor": 0.0,
        "roughnessFactor": 0.5
      },
      "name": "Fantasy_Texture"
    }
  ],
  "meshes": [
    {
      "primitives": [
        {
          "attributes": {
            "POSITION": 0,
            "NORMAL": 1,
            "TANGENT": 2,
            "TEXCOORD_0": 3,
            "COLOR_0": 4
          },
          "indices": 5,
          "material": 0
        }
      ],
      "name": "SF_Bld_House_Blue_03"
    }
  ],
  "nodes": [
    {
      "mesh": 0,
      "rotation": [
        0.0,
        0.0,
        0.0,
        -1.0
      ],
      "translation": [
        -12.6293125,
        -6.58864975,
        -12.7705975
      ],
      "name": "SF_Bld_House_Blue_03"
    }
  ],
  "samplers": [
    {
      "minFilter": 9729
    }
  ],
  "scene": 0,
  "scenes": [
    {
      "nodes": [
        0
      ],
      "name": "SF_Bld_House_Blue_03"
    }
  ],
  "textures": [
    {
      "sampler": 0,
      "source": 0,
      "name": "Fantasy_Texture"
    }
  ]
}